<svg xmlns="http://www.w3.org/2000/svg" width="68" height="70" viewBox="0 0 78 80" fill="none">
  <path
    d="M42.7273 65.0861V47.6024C42.7273 46.8295 42.4208 46.0884 41.8752 45.5419C41.3297 44.9954 40.5897 44.6884 39.8182 44.6884H28.1818C27.4103 44.6884 26.6703 44.9954 26.1248 45.5419C25.5792 46.0884 25.2727 46.8295 25.2727 47.6024V65.0861C25.2727 65.8589 24.9662 66.6001 24.4207 67.1465C23.8751 67.693 23.1352 68 22.3636 68H4.90909C4.13755 68 3.39761 67.693 2.85205 67.1465C2.30649 66.6001 2 65.8589 2 65.0861V31.3935C2.00651 30.9903 2.09352 30.5924 2.25589 30.2233C2.41826 29.8542 2.65272 29.5214 2.94545 29.2445L32.0364 2.76399C32.5726 2.27255 33.2732 2 34 2C34.7268 2 35.4274 2.27255 35.9636 2.76399L65.0545 29.2445C65.3473 29.5214 65.5817 29.8542 65.7441 30.2233C65.9065 30.5924 65.9935 30.9903 66 31.3935V65.0861C66 65.8589 65.6935 66.6001 65.148 67.1465C64.6024 67.693 63.8624 68 63.0909 68H45.6364C44.8648 68 44.1249 67.693 43.5793 67.1465C43.0338 66.6001 42.7273 65.8589 42.7273 65.0861Z"
    stroke="url(#paint0_linear_131_65)" stroke-width="3" stroke-linecap="round" stroke-linejoin="round"/>
  <defs>
    <linearGradient id="paint0_linear_131_65" x1="34" y1="2" x2="34" y2="68" gradientUnits="userSpaceOnUse">
      <stop stop-color="#FFBB50"/>
      <stop offset="1" stop-color="#FF935E" stop-opacity="0"/>
    </linearGradient>
  </defs>
</svg>
